<mxfile host="app.diagrams.net" modified="2021-02-13T11:30:51.004Z" agent="5.0 (X11; Linux x86_64) AppleWebKit/537.36 (KHTML, like Gecko) Chrome/88.0.4324.150 Safari/537.36" etag="HMxpzB2MEq7IVn-gvFJf" version="14.3.1" type="github">
  <diagram id="R5AzWyoVM0gvngbLf0Ff" name="Page-1">
    <mxGraphModel dx="934" dy="534" grid="1" gridSize="10" guides="1" tooltips="1" connect="1" arrows="1" fold="1" page="1" pageScale="1" pageWidth="827" pageHeight="1169" math="0" shadow="0">
      <root>
        <mxCell id="0" />
        <mxCell id="1" parent="0" />
        <mxCell id="7LocjaoCJL9czbbwL-ek-1" value="" style="ellipse;whiteSpace=wrap;html=1;aspect=fixed;fillColor=#008a00;strokeColor=#005700;fontColor=#ffffff;" vertex="1" parent="1">
          <mxGeometry x="40" y="430" width="20" height="20" as="geometry" />
        </mxCell>
        <mxCell id="7LocjaoCJL9czbbwL-ek-2" value="" style="ellipse;whiteSpace=wrap;html=1;aspect=fixed;fillColor=#e51400;strokeColor=#B20000;fontColor=#ffffff;" vertex="1" parent="1">
          <mxGeometry x="760" y="430" width="20" height="20" as="geometry" />
        </mxCell>
        <mxCell id="7LocjaoCJL9czbbwL-ek-3" value="" style="endArrow=none;html=1;exitX=1;exitY=0.5;exitDx=0;exitDy=0;entryX=0;entryY=0.5;entryDx=0;entryDy=0;strokeColor=#FFD966;rounded=0;endSize=6;jumpSize=16;strokeWidth=4;" edge="1" parent="1" source="7LocjaoCJL9czbbwL-ek-1" target="7LocjaoCJL9czbbwL-ek-2">
          <mxGeometry width="50" height="50" relative="1" as="geometry">
            <mxPoint x="390" y="470" as="sourcePoint" />
            <mxPoint x="440" y="420" as="targetPoint" />
          </mxGeometry>
        </mxCell>
        <mxCell id="7LocjaoCJL9czbbwL-ek-4" value="" style="endArrow=none;html=1;strokeWidth=4;edgeStyle=orthogonalEdgeStyle;curved=1;entryX=0;entryY=0.5;entryDx=0;entryDy=0;strokeColor=#97D077;" edge="1" parent="1" target="7LocjaoCJL9czbbwL-ek-2">
          <mxGeometry width="50" height="50" relative="1" as="geometry">
            <mxPoint x="60" y="440" as="sourcePoint" />
            <mxPoint x="440" y="420" as="targetPoint" />
            <Array as="points">
              <mxPoint x="60" y="410" />
              <mxPoint x="760" y="410" />
            </Array>
          </mxGeometry>
        </mxCell>
        <mxCell id="7LocjaoCJL9czbbwL-ek-5" value="" style="endArrow=none;html=1;strokeWidth=4;edgeStyle=orthogonalEdgeStyle;curved=1;entryX=0;entryY=0.5;entryDx=0;entryDy=0;strokeColor=#97D077;exitX=1;exitY=0.5;exitDx=0;exitDy=0;" edge="1" parent="1" source="7LocjaoCJL9czbbwL-ek-1" target="7LocjaoCJL9czbbwL-ek-2">
          <mxGeometry width="50" height="50" relative="1" as="geometry">
            <mxPoint x="70" y="510" as="sourcePoint" />
            <mxPoint x="770" y="510" as="targetPoint" />
            <Array as="points">
              <mxPoint x="60" y="480" />
              <mxPoint x="760" y="480" />
            </Array>
          </mxGeometry>
        </mxCell>
        <mxCell id="7LocjaoCJL9czbbwL-ek-6" value="" style="endArrow=none;html=1;strokeWidth=4;edgeStyle=orthogonalEdgeStyle;curved=1;entryX=0;entryY=0.5;entryDx=0;entryDy=0;strokeColor=#F19C99;" edge="1" parent="1">
          <mxGeometry width="50" height="50" relative="1" as="geometry">
            <mxPoint x="60" y="440" as="sourcePoint" />
            <mxPoint x="760" y="440" as="targetPoint" />
            <Array as="points">
              <mxPoint x="60" y="380" />
              <mxPoint x="760" y="380" />
            </Array>
          </mxGeometry>
        </mxCell>
        <mxCell id="7LocjaoCJL9czbbwL-ek-7" value="" style="endArrow=none;html=1;strokeWidth=4;edgeStyle=orthogonalEdgeStyle;curved=1;entryX=0;entryY=0.5;entryDx=0;entryDy=0;exitX=1;exitY=0.5;exitDx=0;exitDy=0;strokeColor=#F19C99;" edge="1" parent="1">
          <mxGeometry width="50" height="50" relative="1" as="geometry">
            <mxPoint x="59.9700000000083" y="440" as="sourcePoint" />
            <mxPoint x="759.9699999999837" y="440" as="targetPoint" />
            <Array as="points">
              <mxPoint x="60" y="510" />
              <mxPoint x="760" y="510" />
            </Array>
          </mxGeometry>
        </mxCell>
        <mxCell id="7LocjaoCJL9czbbwL-ek-8" value="" style="endArrow=none;dashed=1;html=1;strokeWidth=4;strokeColor=#A9C4EB;jumpSize=3;jumpStyle=gap;curved=1;" edge="1" parent="1">
          <mxGeometry width="50" height="50" relative="1" as="geometry">
            <mxPoint x="140" y="440" as="sourcePoint" />
            <mxPoint x="200" y="410" as="targetPoint" />
            <Array as="points">
              <mxPoint x="170" y="430" />
            </Array>
          </mxGeometry>
        </mxCell>
        <mxCell id="7LocjaoCJL9czbbwL-ek-9" value="" style="endArrow=none;dashed=1;html=1;strokeWidth=4;strokeColor=#A9C4EB;" edge="1" parent="1">
          <mxGeometry width="50" height="50" relative="1" as="geometry">
            <mxPoint x="180" y="440" as="sourcePoint" />
            <mxPoint x="240" y="410" as="targetPoint" />
            <Array as="points">
              <mxPoint x="210" y="430" />
            </Array>
          </mxGeometry>
        </mxCell>
        <mxCell id="7LocjaoCJL9czbbwL-ek-10" value="" style="endArrow=none;dashed=1;html=1;strokeWidth=4;strokeColor=#A9C4EB;" edge="1" parent="1">
          <mxGeometry width="50" height="50" relative="1" as="geometry">
            <mxPoint x="220" y="440" as="sourcePoint" />
            <mxPoint x="280" y="410" as="targetPoint" />
            <Array as="points">
              <mxPoint x="250" y="430" />
            </Array>
          </mxGeometry>
        </mxCell>
        <mxCell id="7LocjaoCJL9czbbwL-ek-11" value="" style="endArrow=none;dashed=1;html=1;strokeWidth=4;strokeColor=#A9C4EB;" edge="1" parent="1">
          <mxGeometry width="50" height="50" relative="1" as="geometry">
            <mxPoint x="310" y="410" as="sourcePoint" />
            <mxPoint x="370" y="380" as="targetPoint" />
            <Array as="points">
              <mxPoint x="340" y="400" />
            </Array>
          </mxGeometry>
        </mxCell>
        <mxCell id="7LocjaoCJL9czbbwL-ek-12" value="" style="endArrow=none;dashed=1;html=1;strokeWidth=4;strokeColor=#A9C4EB;" edge="1" parent="1">
          <mxGeometry width="50" height="50" relative="1" as="geometry">
            <mxPoint x="330" y="410" as="sourcePoint" />
            <mxPoint x="390" y="380" as="targetPoint" />
            <Array as="points">
              <mxPoint x="360" y="400" />
            </Array>
          </mxGeometry>
        </mxCell>
        <mxCell id="7LocjaoCJL9czbbwL-ek-13" value="" style="endArrow=none;dashed=1;html=1;strokeWidth=4;strokeColor=#A9C4EB;" edge="1" parent="1">
          <mxGeometry width="50" height="50" relative="1" as="geometry">
            <mxPoint x="370" y="410" as="sourcePoint" />
            <mxPoint x="430" y="380" as="targetPoint" />
            <Array as="points" />
          </mxGeometry>
        </mxCell>
        <mxCell id="7LocjaoCJL9czbbwL-ek-14" value="" style="endArrow=none;dashed=1;html=1;strokeWidth=4;strokeColor=#A9C4EB;" edge="1" parent="1">
          <mxGeometry width="50" height="50" relative="1" as="geometry">
            <mxPoint x="390" y="410" as="sourcePoint" />
            <mxPoint x="450" y="380" as="targetPoint" />
            <Array as="points">
              <mxPoint x="420" y="400" />
              <mxPoint x="430" y="390" />
            </Array>
          </mxGeometry>
        </mxCell>
        <mxCell id="7LocjaoCJL9czbbwL-ek-15" value="" style="endArrow=none;dashed=1;html=1;strokeWidth=4;strokeColor=#A9C4EB;" edge="1" parent="1">
          <mxGeometry width="50" height="50" relative="1" as="geometry">
            <mxPoint x="414" y="410" as="sourcePoint" />
            <mxPoint x="474" y="380" as="targetPoint" />
            <Array as="points">
              <mxPoint x="444" y="400" />
            </Array>
          </mxGeometry>
        </mxCell>
        <mxCell id="7LocjaoCJL9czbbwL-ek-16" value="" style="endArrow=none;dashed=1;html=1;strokeWidth=4;strokeColor=#A9C4EB;" edge="1" parent="1">
          <mxGeometry width="50" height="50" relative="1" as="geometry">
            <mxPoint x="280" y="440" as="sourcePoint" />
            <mxPoint x="330" y="480" as="targetPoint" />
            <Array as="points" />
          </mxGeometry>
        </mxCell>
        <mxCell id="7LocjaoCJL9czbbwL-ek-22" value="" style="endArrow=none;dashed=1;html=1;strokeWidth=4;strokeColor=#A9C4EB;" edge="1" parent="1">
          <mxGeometry width="50" height="50" relative="1" as="geometry">
            <mxPoint x="300" y="440" as="sourcePoint" />
            <mxPoint x="350" y="480" as="targetPoint" />
            <Array as="points" />
          </mxGeometry>
        </mxCell>
        <mxCell id="7LocjaoCJL9czbbwL-ek-23" value="" style="endArrow=none;dashed=1;html=1;strokeWidth=4;strokeColor=#A9C4EB;" edge="1" parent="1">
          <mxGeometry width="50" height="50" relative="1" as="geometry">
            <mxPoint x="320" y="440" as="sourcePoint" />
            <mxPoint x="370" y="480" as="targetPoint" />
            <Array as="points" />
          </mxGeometry>
        </mxCell>
        <mxCell id="7LocjaoCJL9czbbwL-ek-25" value="" style="endArrow=none;dashed=1;html=1;strokeWidth=4;strokeColor=#A9C4EB;" edge="1" parent="1">
          <mxGeometry width="50" height="50" relative="1" as="geometry">
            <mxPoint x="200" y="480" as="sourcePoint" />
            <mxPoint x="240" y="500" as="targetPoint" />
            <Array as="points" />
          </mxGeometry>
        </mxCell>
        <mxCell id="7LocjaoCJL9czbbwL-ek-26" value="" style="endArrow=none;dashed=1;html=1;strokeWidth=4;strokeColor=#A9C4EB;" edge="1" parent="1">
          <mxGeometry width="50" height="50" relative="1" as="geometry">
            <mxPoint x="230" y="480" as="sourcePoint" />
            <mxPoint x="270" y="510" as="targetPoint" />
            <Array as="points" />
          </mxGeometry>
        </mxCell>
        <mxCell id="7LocjaoCJL9czbbwL-ek-27" value="" style="endArrow=none;dashed=1;html=1;strokeWidth=4;strokeColor=#A9C4EB;" edge="1" parent="1">
          <mxGeometry width="50" height="50" relative="1" as="geometry">
            <mxPoint x="250" y="480" as="sourcePoint" />
            <mxPoint x="290" y="510" as="targetPoint" />
            <Array as="points" />
          </mxGeometry>
        </mxCell>
        <mxCell id="7LocjaoCJL9czbbwL-ek-28" value="" style="endArrow=none;dashed=1;html=1;strokeWidth=4;strokeColor=#FF99CC;" edge="1" parent="1">
          <mxGeometry width="50" height="50" relative="1" as="geometry">
            <mxPoint x="414" y="480" as="sourcePoint" />
            <mxPoint x="474" y="440" as="targetPoint" />
            <Array as="points">
              <mxPoint x="430" y="460" />
            </Array>
          </mxGeometry>
        </mxCell>
        <mxCell id="7LocjaoCJL9czbbwL-ek-29" value="" style="endArrow=none;dashed=1;html=1;strokeWidth=4;strokeColor=#FF99CC;" edge="1" parent="1">
          <mxGeometry width="50" height="50" relative="1" as="geometry">
            <mxPoint x="440" y="480" as="sourcePoint" />
            <mxPoint x="500" y="440" as="targetPoint" />
            <Array as="points">
              <mxPoint x="456" y="460" />
            </Array>
          </mxGeometry>
        </mxCell>
        <mxCell id="7LocjaoCJL9czbbwL-ek-30" value="" style="endArrow=none;dashed=1;html=1;strokeWidth=4;strokeColor=#FF99CC;" edge="1" parent="1">
          <mxGeometry width="50" height="50" relative="1" as="geometry">
            <mxPoint x="470" y="480" as="sourcePoint" />
            <mxPoint x="530" y="440" as="targetPoint" />
            <Array as="points">
              <mxPoint x="486" y="460" />
            </Array>
          </mxGeometry>
        </mxCell>
        <mxCell id="7LocjaoCJL9czbbwL-ek-31" value="" style="endArrow=none;dashed=1;html=1;strokeWidth=4;strokeColor=#FF99CC;" edge="1" parent="1">
          <mxGeometry width="50" height="50" relative="1" as="geometry">
            <mxPoint x="440" y="510" as="sourcePoint" />
            <mxPoint x="490" y="480" as="targetPoint" />
            <Array as="points">
              <mxPoint x="456" y="490" />
            </Array>
          </mxGeometry>
        </mxCell>
        <mxCell id="7LocjaoCJL9czbbwL-ek-32" value="" style="endArrow=none;dashed=1;html=1;strokeWidth=4;strokeColor=#FF99CC;" edge="1" parent="1">
          <mxGeometry width="50" height="50" relative="1" as="geometry">
            <mxPoint x="470" y="510" as="sourcePoint" />
            <mxPoint x="520" y="480" as="targetPoint" />
            <Array as="points">
              <mxPoint x="486" y="490" />
            </Array>
          </mxGeometry>
        </mxCell>
        <mxCell id="7LocjaoCJL9czbbwL-ek-33" value="" style="endArrow=none;dashed=1;html=1;strokeWidth=4;strokeColor=#FF99CC;" edge="1" parent="1">
          <mxGeometry width="50" height="50" relative="1" as="geometry">
            <mxPoint x="500" y="510" as="sourcePoint" />
            <mxPoint x="560" y="480" as="targetPoint" />
            <Array as="points">
              <mxPoint x="516" y="490" />
            </Array>
          </mxGeometry>
        </mxCell>
        <mxCell id="7LocjaoCJL9czbbwL-ek-34" value="" style="endArrow=none;dashed=1;html=1;strokeWidth=4;strokeColor=#FF99FF;" edge="1" parent="1">
          <mxGeometry width="50" height="50" relative="1" as="geometry">
            <mxPoint x="490" y="380" as="sourcePoint" />
            <mxPoint x="540" y="410" as="targetPoint" />
            <Array as="points" />
          </mxGeometry>
        </mxCell>
        <mxCell id="7LocjaoCJL9czbbwL-ek-35" value="" style="endArrow=none;dashed=1;html=1;strokeWidth=4;strokeColor=#FF99FF;" edge="1" parent="1">
          <mxGeometry width="50" height="50" relative="1" as="geometry">
            <mxPoint x="519.9999999999998" y="380" as="sourcePoint" />
            <mxPoint x="569.9999999999998" y="410" as="targetPoint" />
            <Array as="points" />
          </mxGeometry>
        </mxCell>
        <mxCell id="7LocjaoCJL9czbbwL-ek-36" value="" style="endArrow=none;dashed=1;html=1;strokeWidth=4;strokeColor=#FF99FF;" edge="1" parent="1">
          <mxGeometry width="50" height="50" relative="1" as="geometry">
            <mxPoint x="549.9999999999998" y="380" as="sourcePoint" />
            <mxPoint x="599.9999999999998" y="410" as="targetPoint" />
            <Array as="points" />
          </mxGeometry>
        </mxCell>
      </root>
    </mxGraphModel>
  </diagram>
</mxfile>
